<svg width="30" height="32" viewBox="0 0 30 32" fill="none" xmlns="http://www.w3.org/2000/svg">
<path d="M27.6667 16V26.25C27.6667 28.1356 27.6667 29.0784 27.0809 29.6642C26.4951 30.25 25.5523 30.25 23.6667 30.25H6.29168C5.40057 30.25 4.95502 30.25 4.58854 30.1561C3.52762 29.8842 2.69917 29.0557 2.42727 27.9948C2.33334 27.6283 2.33334 27.1828 2.33334 26.2917V26.2917C2.33334 25.4006 2.33334 24.955 2.42727 24.5885C2.69917 23.5276 3.52762 22.6992 4.58854 22.4273C4.95502 22.3333 5.40057 22.3333 6.29168 22.3333H23.6667C25.5523 22.3333 26.4951 22.3333 27.0809 21.7475C27.6667 21.1618 27.6667 20.219 27.6667 18.3333V5.75C27.6667 3.86438 27.6667 2.92157 27.0809 2.33579C26.4951 1.75 25.5523 1.75 23.6667 1.75H6.33335C4.44773 1.75 3.50492 1.75 2.91913 2.33579C2.33334 2.92157 2.33334 3.86438 2.33334 5.75V26.2917" stroke="#33363F" stroke-width="3"/>
<path d="M10.25 9.66666L19.75 9.66666" stroke="#33363F" stroke-width="3" stroke-linecap="round"/>
</svg>
